<?xml version="1.0" encoding="UTF-8" standalone="no"?>
<!DOCTYPE svg PUBLIC "-//W3C//DTD SVG 1.1//EN" "http://www.w3.org/Graphics/SVG/1.1/DTD/svg11.dtd">
<svg width="100%" height="100%" viewBox="0 0 54 275" version="1.1" xmlns="http://www.w3.org/2000/svg" xmlns:xlink="http://www.w3.org/1999/xlink" xml:space="preserve" xmlns:serif="http://www.serif.com/" style="fill-rule:evenodd;clip-rule:evenodd;stroke-linejoin:round;stroke-miterlimit:2;">
    <g id="Artboard1" transform="matrix(0.0526367,0,0,0.358073,0,0)">
        <rect x="0" y="0" width="1024" height="768" style="fill:none;"/>
        <clipPath id="_clip1">
            <rect x="0" y="0" width="1024" height="768"/>
        </clipPath>
        <g clip-path="url(#_clip1)">
            <g transform="matrix(2.78357e-16,-0.66825,4.99331,4.49455e-17,2085.5,-4239.99)">
                <g transform="matrix(292.542,6.90253e-30,1.03538e-29,266.331,-7490.92,-214.648)">
                    <path d="M0.338,-0.545L0.338,-0.446L0.025,-0.446L0.025,-0.545L0.338,-0.545ZM0.102,-0.676L0.231,-0.676L0.231,-0.164C0.231,-0.147 0.233,-0.134 0.239,-0.124C0.244,-0.115 0.251,-0.109 0.26,-0.106C0.269,-0.103 0.278,-0.101 0.289,-0.101C0.297,-0.101 0.305,-0.101 0.311,-0.103C0.318,-0.104 0.323,-0.105 0.327,-0.106L0.348,-0.005C0.342,-0.003 0.332,-0 0.319,0.002C0.306,0.005 0.291,0.007 0.273,0.007C0.241,0.008 0.212,0.003 0.186,-0.007C0.16,-0.018 0.14,-0.035 0.124,-0.058C0.109,-0.08 0.102,-0.109 0.102,-0.143L0.102,-0.676Z" style="fill:rgb(30,144,255);fill-rule:nonzero;"/>
                </g>
                <g transform="matrix(292.542,6.90253e-30,1.03538e-29,266.331,-7365.13,-214.648)">
                    <path d="M0.066,-0L0.066,-0.545L0.191,-0.545L0.191,-0.455L0.196,-0.455C0.206,-0.486 0.223,-0.51 0.248,-0.528C0.272,-0.545 0.3,-0.553 0.331,-0.553C0.338,-0.553 0.346,-0.553 0.355,-0.552C0.364,-0.552 0.371,-0.551 0.377,-0.55L0.377,-0.431C0.372,-0.433 0.363,-0.435 0.351,-0.437C0.34,-0.438 0.328,-0.439 0.317,-0.439C0.294,-0.439 0.273,-0.434 0.254,-0.424C0.236,-0.414 0.221,-0.4 0.211,-0.382C0.2,-0.364 0.195,-0.344 0.195,-0.321L0.195,-0L0.066,-0Z" style="fill:rgb(255,210,0);fill-rule:nonzero;"/>
                </g>
                <g transform="matrix(292.542,6.90253e-30,1.03538e-29,266.331,-7228.04,-214.648)">
                    <path d="M0.066,-0L0.066,-0.545L0.195,-0.545L0.195,-0L0.066,-0ZM0.131,-0.623C0.11,-0.623 0.093,-0.63 0.078,-0.643C0.063,-0.657 0.056,-0.673 0.056,-0.692C0.056,-0.712 0.063,-0.728 0.078,-0.742C0.093,-0.756 0.11,-0.762 0.131,-0.762C0.151,-0.762 0.169,-0.756 0.183,-0.742C0.198,-0.728 0.205,-0.712 0.205,-0.692C0.205,-0.673 0.198,-0.657 0.183,-0.643C0.169,-0.63 0.151,-0.623 0.131,-0.623Z" style="fill:rgb(243,17,91);fill-rule:nonzero;"/>
                </g>
                <g transform="matrix(292.542,6.90253e-30,1.03538e-29,266.331,-7140.15,-214.648)">
                    <path d="M0.553,-0.545L0.359,-0L0.217,-0L0.023,-0.545L0.16,-0.545L0.285,-0.14L0.291,-0.14L0.417,-0.545L0.553,-0.545Z" style="fill:rgb(221,221,223);fill-rule:nonzero;"/>
                </g>
                <g transform="matrix(1,0,0,1,8.35833,0)">
                    <g transform="matrix(292.542,6.90253e-30,1.03538e-29,266.331,-6884.77,-214.429)">
                        <path d="M0.414,-0.229L0.414,-0.545L0.542,-0.545L0.542,-0L0.418,-0L0.418,-0.097L0.412,-0.097C0.4,-0.066 0.379,-0.041 0.351,-0.022C0.323,-0.003 0.289,0.007 0.248,0.007C0.212,0.007 0.181,-0.001 0.153,-0.017C0.126,-0.033 0.105,-0.056 0.089,-0.087C0.074,-0.117 0.066,-0.155 0.066,-0.198L0.066,-0.545L0.195,-0.545L0.195,-0.218C0.195,-0.183 0.204,-0.156 0.223,-0.136C0.242,-0.115 0.267,-0.105 0.298,-0.105C0.317,-0.105 0.335,-0.11 0.353,-0.119C0.37,-0.128 0.385,-0.142 0.396,-0.16C0.408,-0.179 0.414,-0.202 0.414,-0.229Z" style="fill:rgb(221,221,223);fill-rule:nonzero;"/>
                    </g>
                    <g transform="matrix(292.542,6.90253e-30,1.03538e-29,266.331,-6699.36,-214.429)">
                        <path d="M0.066,-0L0.066,-0.545L0.189,-0.545L0.189,-0.453L0.195,-0.453C0.207,-0.484 0.225,-0.508 0.252,-0.526C0.278,-0.544 0.309,-0.553 0.346,-0.553C0.383,-0.553 0.414,-0.544 0.439,-0.526C0.465,-0.508 0.483,-0.484 0.493,-0.453L0.499,-0.453C0.511,-0.483 0.531,-0.507 0.56,-0.525C0.589,-0.544 0.623,-0.553 0.663,-0.553C0.713,-0.553 0.754,-0.537 0.786,-0.505C0.817,-0.473 0.833,-0.427 0.833,-0.366L0.833,-0L0.704,-0L0.704,-0.346C0.704,-0.38 0.695,-0.405 0.677,-0.421C0.659,-0.436 0.637,-0.444 0.611,-0.444C0.58,-0.444 0.556,-0.435 0.539,-0.415C0.521,-0.396 0.512,-0.371 0.512,-0.34L0.512,-0L0.386,-0L0.386,-0.352C0.386,-0.38 0.378,-0.402 0.361,-0.419C0.344,-0.436 0.322,-0.444 0.295,-0.444C0.276,-0.444 0.259,-0.44 0.244,-0.43C0.229,-0.421 0.217,-0.408 0.208,-0.391C0.199,-0.374 0.195,-0.354 0.195,-0.332L0.195,-0L0.066,-0Z" style="fill:rgb(221,221,223);fill-rule:nonzero;"/>
                    </g>
                    <g transform="matrix(292.542,6.90253e-30,1.03538e-29,266.331,-6429.17,-214.618)">
                        <path d="M0.145,0.008C0.124,0.008 0.105,0 0.09,-0.015C0.074,-0.03 0.067,-0.049 0.067,-0.07C0.067,-0.092 0.074,-0.11 0.09,-0.125C0.105,-0.14 0.124,-0.148 0.145,-0.148C0.166,-0.148 0.184,-0.14 0.2,-0.125C0.215,-0.11 0.223,-0.092 0.223,-0.07C0.223,-0.056 0.219,-0.043 0.212,-0.031C0.205,-0.019 0.195,-0.01 0.184,-0.003C0.172,0.004 0.159,0.008 0.145,0.008Z" style="fill:rgb(46,225,156);fill-rule:nonzero;"/>
                    </g>
                </g>
                <g transform="matrix(292.542,6.90253e-30,1.03538e-29,266.331,-6959.99,-214.429)">
                    <path d="M0.066,-0L0.066,-0.545L0.195,-0.545L0.195,-0L0.066,-0ZM0.131,-0.623C0.11,-0.623 0.093,-0.63 0.078,-0.643C0.063,-0.657 0.056,-0.673 0.056,-0.692C0.056,-0.712 0.063,-0.728 0.078,-0.742C0.093,-0.756 0.11,-0.762 0.131,-0.762C0.151,-0.762 0.169,-0.756 0.183,-0.742C0.198,-0.728 0.205,-0.712 0.205,-0.692C0.205,-0.673 0.198,-0.657 0.183,-0.643C0.169,-0.63 0.151,-0.623 0.131,-0.623Z" style="fill:rgb(221,221,223);fill-rule:nonzero;"/>
                </g>
            </g>
        </g>
    </g>
</svg>
